<?xml version="1.0" encoding="utf-8"?>
<!-- Generator: Adobe Illustrator 21.0.2, SVG Export Plug-In . SVG Version: 6.00 Build 0)  -->
<svg version="1.1" id="Layer_1" xmlns="http://www.w3.org/2000/svg" xmlns:xlink="http://www.w3.org/1999/xlink" x="0px" y="0px"
	 viewBox="0 0 271.1 86.7" style="enable-background:new 0 0 271.1 86.7;" xml:space="preserve">
<style type="text/css">
	.st0{fill:#9B9B9A;}
	.st1{fill:#E51B40;}
	.st2{fill:#595A5C;}
</style>
<g>
	<path class="st0" d="M179.8,32.5c-2.5,0-4.4,0.8-5.8,2.4c-1.4,1.6-2.1,3.7-2.1,6.5c0,2.8,0.7,5,2,6.5c1.3,1.5,3.2,2.3,5.7,2.3
		c1.6,0,3.2-0.2,4.5-0.6v1.2c-1.3,0.5-2.9,0.7-4.9,0.7c-2.8,0-4.9-0.9-6.5-2.7c-1.6-1.8-2.4-4.3-2.4-7.5c0-2,0.4-3.8,1.1-5.3
		c0.8-1.5,1.8-2.7,3.3-3.5c1.4-0.8,3.1-1.2,4.9-1.2c1.9,0,3.6,0.4,5.1,1.1l-0.5,1.2C182.9,32.9,181.4,32.5,179.8,32.5z"/>
	<path class="st0" d="M200.2,43.9c0,2.4-0.6,4.2-1.7,5.6c-1.2,1.3-2.7,2-4.8,2c-1.3,0-2.4-0.3-3.4-0.9s-1.7-1.5-2.2-2.7
		c-0.5-1.2-0.8-2.5-0.8-4c0-2.4,0.6-4.2,1.7-5.6c1.2-1.3,2.7-2,4.7-2c2,0,3.6,0.7,4.7,2C199.7,39.7,200.2,41.5,200.2,43.9z
		 M188.7,43.9c0,2,0.4,3.6,1.3,4.7c0.9,1.1,2.1,1.7,3.7,1.7c1.6,0,2.9-0.6,3.7-1.7c0.9-1.1,1.3-2.7,1.3-4.7c0-2-0.4-3.6-1.3-4.7
		s-2.1-1.7-3.7-1.7c-1.6,0-2.9,0.6-3.7,1.7C189.2,40.3,188.7,41.8,188.7,43.9z"/>
	<path class="st0" d="M205.6,51.2h-1.3V30.3h1.3V51.2z"/>
	<path class="st0" d="M211.8,51.2h-1.3V30.3h1.3V51.2z"/>
	<path class="st0" d="M216.5,32.5c0-0.9,0.3-1.3,0.8-1.3c0.3,0,0.5,0.1,0.7,0.3c0.2,0.2,0.2,0.5,0.2,1c0,0.4-0.1,0.7-0.2,1
		c-0.2,0.2-0.4,0.3-0.7,0.3C216.8,33.8,216.5,33.4,216.5,32.5z M218,51.2h-1.3V36.6h1.3V51.2z"/>
	<path class="st0" d="M233.1,51.2v-9.5c0-1.5-0.3-2.5-0.9-3.2c-0.6-0.7-1.6-1-2.9-1c-1.7,0-3,0.4-3.8,1.3s-1.2,2.3-1.2,4.3v8h-1.3
		V36.6h1.1l0.3,2h0.1c0.9-1.5,2.6-2.3,5.1-2.3c3.3,0,5,1.8,5,5.3v9.5H233.1z"/>
	<path class="st0" d="M248.1,47.4c0,1.3-0.5,2.3-1.5,3c-1,0.7-2.4,1.1-4.2,1.1c-2,0-3.5-0.3-4.6-0.9v-1.4c1.5,0.7,3,1.1,4.6,1.1
		c1.4,0,2.5-0.2,3.3-0.7c0.7-0.5,1.1-1.1,1.1-1.9c0-0.7-0.3-1.3-0.9-1.9s-1.6-1-2.9-1.5c-1.5-0.5-2.5-1-3.1-1.4
		c-0.6-0.4-1-0.8-1.3-1.3s-0.4-1.1-0.4-1.8c0-1.1,0.5-2,1.4-2.6s2.2-1,3.8-1c1.6,0,3.1,0.3,4.5,0.9l-0.5,1.2c-1.4-0.6-2.8-0.9-4-0.9
		c-1.2,0-2.1,0.2-2.8,0.6s-1,0.9-1,1.6c0,0.8,0.3,1.4,0.8,1.8c0.5,0.5,1.6,1,3.2,1.5c1.3,0.5,2.3,0.9,2.9,1.3c0.6,0.4,1,0.8,1.3,1.3
		C248,46.2,248.1,46.7,248.1,47.4z"/>
</g>
<g>
	<g>
		<path class="st1" d="M72.4,43.8L55.7,29h0c-3.5-3.1-8-4.9-13-4.9c-10.8,0-19.6,8.8-19.6,19.6c0,10.8,8.8,19.6,19.6,19.6
			c5,0,9.5-1.9,13-4.9h0L72.4,43.8z M29,43.8c0-7.5,6.1-13.7,13.7-13.7c7.5,0,13.7,6.1,13.7,13.7c0,7.5-6.1,13.7-13.7,13.7
			C35.2,57.4,29,51.3,29,43.8"/>
	</g>
	<g>
		<path class="st2" d="M77.9,47.6c0-3,2.5-5.1,9.8-6.1v-0.7c0-1.8-1-2.7-2.8-2.7c-2.2,0-3.8,1-5.3,2.2l-1.4-1.3
			c1.8-1.7,4.1-2.9,7-2.9c3.5,0,4.9,1.8,4.9,4.9v6.5c0,1.8,0.1,2.8,0.4,3.6H88c-0.2-0.6-0.3-1.2-0.3-2c-1.6,1.5-3.5,2.2-5.6,2.2
			C79.5,51.3,77.9,50,77.9,47.6 M87.7,47.3v-4.1c-5.6,0.9-7.4,2.2-7.4,4.1c0,1.4,0.9,2.2,2.5,2.2C84.6,49.4,86.3,48.6,87.7,47.3"/>
	</g>
	<g>
		<path class="st2" d="M93.2,43.8c0-5.3,3.4-7.6,6.7-7.6c3.3,0,4.8,1.9,5.7,4.1l-2,0.8c-0.7-1.9-1.9-2.9-3.8-2.9
			c-2.1,0-4.2,1.5-4.2,5.6c0,3.6,1.7,5.6,4.2,5.6c1.9,0,3-0.8,3.9-2.9l2,0.8c-1.1,2.4-2.8,4.2-6,4.2C96.4,51.4,93.2,48.8,93.2,43.8"
			/>
	</g>
	<g>
		<path class="st2" d="M107.8,43.8c0-5.3,3.4-7.6,6.7-7.6c3.3,0,4.8,1.9,5.7,4.1l-2,0.8c-0.7-1.9-1.9-2.9-3.8-2.9
			c-2.1,0-4.2,1.5-4.2,5.6c0,3.6,1.7,5.6,4.2,5.6c1.9,0,3-0.8,3.9-2.9l2,0.8c-1.1,2.4-2.8,4.2-6,4.2C111,51.4,107.8,48.8,107.8,43.8
			"/>
	</g>
	<g>
		<path class="st2" d="M122.4,43.8c0-5.3,3.5-7.6,6.6-7.6c3.5,0,6.1,2.4,6.1,7.7v0.5h-10.3c0.1,3.3,2,5.1,4.4,5.1
			c2.1,0,3.3-0.9,4.4-2.4l1.4,1.2c-1.4,1.9-3.2,3.1-6,3.1C125.6,51.4,122.4,48.9,122.4,43.8 M132.9,42.5c-0.2-2.6-1.4-4.4-3.8-4.4
			c-2,0-3.8,1.4-4.2,4.4H132.9z"/>
	</g>
	<g>
		<path class="st2" d="M137.2,48.9l1.4-1.4c1.1,1.2,2.6,2,4.6,2c2.3,0,3.5-0.8,3.5-2.3c0-1.5-1.3-2-3.8-2.6
			c-3.1-0.7-5.2-1.6-5.2-4.4c0-2.2,1.9-4,5.1-4c2.6,0,4.2,0.8,5.6,2.1l-1.2,1.6c-1.1-1-2.6-1.7-4.2-1.7c-2.1,0-3,0.9-3,2
			c0,1.4,1.2,1.9,3.5,2.4c3.3,0.8,5.6,1.6,5.6,4.6c0,2.8-2.5,4.3-5.8,4.3C140.6,51.3,138.4,50.3,137.2,48.9"/>
	</g>
	<g>
		<path class="st2" d="M151.1,48.9l1.4-1.4c1.1,1.2,2.6,2,4.6,2c2.3,0,3.5-0.8,3.5-2.3c0-1.5-1.3-2-3.8-2.6
			c-3.1-0.7-5.2-1.6-5.2-4.4c0-2.2,1.9-4,5.1-4c2.6,0,4.2,0.8,5.6,2.1l-1.2,1.6c-1.1-1-2.6-1.7-4.2-1.7c-2.1,0-3,0.9-3,2
			c0,1.4,1.2,1.9,3.5,2.4c3.3,0.8,5.6,1.6,5.6,4.6c0,2.8-2.5,4.3-5.8,4.3C154.5,51.3,152.3,50.3,151.1,48.9"/>
	</g>
</g>
</svg>
