<?xml version="1.0" encoding="utf-8"?>
<!-- Generator: Adobe Illustrator 25.0.0, SVG Export Plug-In . SVG Version: 6.00 Build 0)  -->
<svg version="1.1" id="Layer_1" xmlns="http://www.w3.org/2000/svg" xmlns:xlink="http://www.w3.org/1999/xlink" x="0px" y="0px"
	 viewBox="0 0 322 86.7" style="enable-background:new 0 0 322 86.7;" xml:space="preserve">
<style type="text/css">
	.st0{fill:#9B9B9A;}
	.st1{fill:#E51B40;}
	.st2{fill:#595A5C;}
</style>
<g>
	<path class="st0" d="M185.6,51.2h-1.4v-9.6h-11.5v9.6h-1.4V31.6h1.4v8.7h11.5v-8.7h1.4V51.2z"/>
	<path class="st0" d="M202.9,43.9c0,2.4-0.6,4.2-1.7,5.6c-1.2,1.3-2.7,2-4.8,2c-1.3,0-2.4-0.3-3.4-0.9s-1.7-1.5-2.2-2.7
		s-0.8-2.5-0.8-4c0-2.4,0.6-4.2,1.7-5.6c1.2-1.3,2.7-2,4.7-2s3.6,0.7,4.7,2C202.4,39.7,202.9,41.5,202.9,43.9z M191.4,43.9
		c0,2,0.4,3.6,1.3,4.7c0.9,1.1,2.1,1.7,3.7,1.7c1.6,0,2.9-0.6,3.7-1.7c0.9-1.1,1.3-2.7,1.3-4.7s-0.4-3.6-1.3-4.7s-2.1-1.7-3.7-1.7
		c-1.6,0-2.9,0.6-3.7,1.7C191.9,40.3,191.4,41.8,191.4,43.9z"/>
	<path class="st0" d="M216,47.4c0,1.3-0.5,2.3-1.5,3s-2.4,1.1-4.2,1.1c-2,0-3.5-0.3-4.6-0.9v-1.4c1.5,0.7,3,1.1,4.6,1.1
		c1.4,0,2.5-0.2,3.3-0.7s1.1-1.1,1.1-1.9c0-0.7-0.3-1.3-0.9-1.9c-0.6-0.5-1.6-1-2.9-1.5c-1.5-0.5-2.5-1-3.1-1.4s-1-0.8-1.3-1.3
		s-0.4-1.1-0.4-1.8c0-1.1,0.5-2,1.4-2.6s2.2-1,3.8-1s3.1,0.3,4.5,0.9l-0.5,1.2c-1.4-0.6-2.8-0.9-4-0.9s-2.1,0.2-2.8,0.6
		c-0.7,0.4-1,0.9-1,1.6c0,0.8,0.3,1.4,0.8,1.8s1.6,1,3.2,1.5c1.3,0.5,2.3,0.9,2.9,1.3c0.6,0.4,1,0.8,1.3,1.3
		C215.9,46.2,216,46.7,216,47.4z"/>
	<path class="st0" d="M226,51.4c-2.2,0-3.9-0.8-4.9-2.5H221V50c0,0.7,0.1,1.4,0.1,2.2v5.6h-1.3V36.6h1.1l0.3,2.1h0.1
		c1-1.6,2.6-2.4,4.8-2.4c2,0,3.5,0.6,4.5,1.9c1,1.3,1.5,3.2,1.5,5.6c0,2.4-0.5,4.3-1.6,5.6C229.4,50.8,227.9,51.4,226,51.4z
		 M226,50.3c1.5,0,2.6-0.6,3.5-1.7c0.8-1.1,1.2-2.7,1.2-4.7c0-4.3-1.5-6.4-4.6-6.4c-1.7,0-2.9,0.5-3.7,1.4s-1.2,2.5-1.2,4.6v0.4
		c0,2.3,0.4,3.9,1.1,4.9C223,49.8,224.2,50.3,226,50.3z"/>
	<path class="st0" d="M235.9,32.5c0-0.9,0.3-1.3,0.8-1.3c0.3,0,0.5,0.1,0.7,0.3c0.2,0.2,0.2,0.5,0.2,1c0,0.4-0.1,0.7-0.2,1
		c-0.2,0.2-0.4,0.3-0.7,0.3C236.2,33.8,235.9,33.4,235.9,32.5z M237.4,51.2h-1.3V36.6h1.3V51.2z"/>
	<path class="st0" d="M246.2,50.3c0.8,0,1.6-0.1,2.2-0.2v1.1c-0.6,0.2-1.4,0.3-2.2,0.3c-1.3,0-2.2-0.3-2.9-1s-0.9-1.8-0.9-3.2v-9.4
		h-2.2V37l2.2-0.6l0.7-3.3h0.7v3.5h4.3v1.2h-4.3V47c0,1.1,0.2,1.9,0.6,2.5C244.7,50,245.3,50.3,246.2,50.3z"/>
	<path class="st0" d="M260.4,51.2l-0.3-2.3H260c-0.7,0.9-1.5,1.6-2.3,2s-1.7,0.6-2.7,0.6c-1.4,0-2.5-0.4-3.3-1.1s-1.2-1.7-1.2-3
		c0-1.4,0.6-2.5,1.8-3.3s2.9-1.2,5.1-1.2l2.8-0.1v-1c0-1.4-0.3-2.4-0.8-3.1c-0.6-0.7-1.5-1.1-2.7-1.1c-1.4,0-2.7,0.4-4.2,1.1
		l-0.5-1.2c1.6-0.8,3.2-1.1,4.7-1.1c1.6,0,2.8,0.4,3.6,1.2c0.8,0.8,1.2,2.1,1.2,3.9v9.7C261.5,51.2,260.4,51.2,260.4,51.2z
		 M255,50.2c1.6,0,2.8-0.4,3.7-1.3c0.9-0.9,1.3-2.1,1.3-3.7v-1.4l-2.5,0.1c-2,0.1-3.5,0.4-4.4,1c-0.9,0.5-1.3,1.4-1.3,2.5
		c0,0.9,0.3,1.6,0.8,2.1C253.2,50,254,50.2,255,50.2z"/>
	<path class="st0" d="M267.4,51.2h-1.3V30.3h1.3V51.2z"/>
	<path class="st0" d="M272.1,32.5c0-0.9,0.3-1.3,0.8-1.3c0.3,0,0.5,0.1,0.7,0.3c0.2,0.2,0.2,0.5,0.2,1c0,0.4-0.1,0.7-0.2,1
		c-0.2,0.2-0.4,0.3-0.7,0.3C272.4,33.8,272.1,33.4,272.1,32.5z M273.6,51.2h-1.3V36.6h1.3V51.2z"/>
	<path class="st0" d="M282.4,50.3c0.8,0,1.6-0.1,2.2-0.2v1.1c-0.6,0.2-1.4,0.3-2.2,0.3c-1.3,0-2.2-0.3-2.9-1s-0.9-1.8-0.9-3.2v-9.4
		h-2.2V37l2.2-0.6l0.7-3.3h0.7v3.5h4.3v1.2H280V47c0,1.1,0.2,1.9,0.6,2.5C280.9,50,281.5,50.3,282.4,50.3z"/>
	<path class="st0" d="M285.3,36.6h1.4l3.1,8.2c0.9,2.5,1.5,4.2,1.8,5.1h0.1c0.4-1.2,1-2.9,1.8-5.2l3.1-8.1h1.4l-6.5,16.9
		c-0.5,1.4-1,2.3-1.3,2.8c-0.4,0.5-0.8,0.8-1.3,1.1c-0.5,0.2-1.1,0.4-1.7,0.4c-0.5,0-1.1-0.1-1.7-0.3v-1.2c0.5,0.1,1.1,0.2,1.7,0.2
		c0.5,0,0.9-0.1,1.2-0.3c0.3-0.2,0.7-0.5,0.9-1c0.3-0.5,0.6-1.2,1-2.1c0.4-1,0.6-1.6,0.7-1.9L285.3,36.6z"/>
</g>
<g>
	<g>
		<path class="st1" d="M72.4,43.8L55.7,29l0,0c-3.5-3.1-8-4.9-13-4.9c-10.8,0-19.6,8.8-19.6,19.6s8.8,19.6,19.6,19.6
			c5,0,9.5-1.9,13-4.9l0,0L72.4,43.8z M29,43.8c0-7.5,6.1-13.7,13.7-13.7c7.5,0,13.7,6.1,13.7,13.7c0,7.5-6.1,13.7-13.7,13.7
			C35.2,57.4,29,51.3,29,43.8"/>
	</g>
	<g>
		<path class="st2" d="M77.9,47.6c0-3,2.5-5.1,9.8-6.1v-0.7c0-1.8-1-2.7-2.8-2.7c-2.2,0-3.8,1-5.3,2.2L78.2,39
			c1.8-1.7,4.1-2.9,7-2.9c3.5,0,4.9,1.8,4.9,4.9v6.5c0,1.8,0.1,2.8,0.4,3.6H88c-0.2-0.6-0.3-1.2-0.3-2c-1.6,1.5-3.5,2.2-5.6,2.2
			C79.5,51.3,77.9,50,77.9,47.6 M87.7,47.3v-4.1c-5.6,0.9-7.4,2.2-7.4,4.1c0,1.4,0.9,2.2,2.5,2.2C84.6,49.4,86.3,48.6,87.7,47.3"/>
	</g>
	<g>
		<path class="st2" d="M93.2,43.8c0-5.3,3.4-7.6,6.7-7.6c3.3,0,4.8,1.9,5.7,4.1l-2,0.8c-0.7-1.9-1.9-2.9-3.8-2.9
			c-2.1,0-4.2,1.5-4.2,5.6c0,3.6,1.7,5.6,4.2,5.6c1.9,0,3-0.8,3.9-2.9l2,0.8c-1.1,2.4-2.8,4.2-6,4.2C96.4,51.4,93.2,48.8,93.2,43.8"
			/>
	</g>
	<g>
		<path class="st2" d="M107.8,43.8c0-5.3,3.4-7.6,6.7-7.6c3.3,0,4.8,1.9,5.7,4.1l-2,0.8c-0.7-1.9-1.9-2.9-3.8-2.9
			c-2.1,0-4.2,1.5-4.2,5.6c0,3.6,1.7,5.6,4.2,5.6c1.9,0,3-0.8,3.9-2.9l2,0.8c-1.1,2.4-2.8,4.2-6,4.2C111,51.4,107.8,48.8,107.8,43.8
			"/>
	</g>
	<g>
		<path class="st2" d="M122.4,43.8c0-5.3,3.5-7.6,6.6-7.6c3.5,0,6.1,2.4,6.1,7.7v0.5h-10.3c0.1,3.3,2,5.1,4.4,5.1
			c2.1,0,3.3-0.9,4.4-2.4l1.4,1.2c-1.4,1.9-3.2,3.1-6,3.1C125.6,51.4,122.4,48.9,122.4,43.8 M132.9,42.5c-0.2-2.6-1.4-4.4-3.8-4.4
			c-2,0-3.8,1.4-4.2,4.4H132.9z"/>
	</g>
	<g>
		<path class="st2" d="M137.2,48.9l1.4-1.4c1.1,1.2,2.6,2,4.6,2c2.3,0,3.5-0.8,3.5-2.3s-1.3-2-3.8-2.6c-3.1-0.7-5.2-1.6-5.2-4.4
			c0-2.2,1.9-4,5.1-4c2.6,0,4.2,0.8,5.6,2.1l-1.2,1.6c-1.1-1-2.6-1.7-4.2-1.7c-2.1,0-3,0.9-3,2c0,1.4,1.2,1.9,3.5,2.4
			c3.3,0.8,5.6,1.6,5.6,4.6c0,2.8-2.5,4.3-5.8,4.3C140.6,51.3,138.4,50.3,137.2,48.9"/>
	</g>
	<g>
		<path class="st2" d="M151.1,48.9l1.4-1.4c1.1,1.2,2.6,2,4.6,2c2.3,0,3.5-0.8,3.5-2.3s-1.3-2-3.8-2.6c-3.1-0.7-5.2-1.6-5.2-4.4
			c0-2.2,1.9-4,5.1-4c2.6,0,4.2,0.8,5.6,2.1l-1.2,1.6c-1.1-1-2.6-1.7-4.2-1.7c-2.1,0-3,0.9-3,2c0,1.4,1.2,1.9,3.5,2.4
			c3.3,0.8,5.6,1.6,5.6,4.6c0,2.8-2.5,4.3-5.8,4.3C154.5,51.3,152.3,50.3,151.1,48.9"/>
	</g>
</g>
</svg>
