<?xml version="1.0" encoding="utf-8"?>
<!-- Generator: Adobe Illustrator 21.0.2, SVG Export Plug-In . SVG Version: 6.00 Build 0)  -->
<svg version="1.1" id="Layer_1" xmlns="http://www.w3.org/2000/svg" xmlns:xlink="http://www.w3.org/1999/xlink" x="0px" y="0px"
	 viewBox="0 0 280.3 39.2" style="enable-background:new 0 0 280.3 39.2;" xml:space="preserve">
<style type="text/css">
	.st0{enable-background:new    ;}
	.st1{fill:#9A9A9A;}
	.st2{fill:#E51B40;}
	.st3{fill:#595A5C;}
</style>
<g class="st0">
	<path class="st1" d="M164,27.1h-1.1l-4.4-15.2c-0.4-1.2-0.6-2.3-0.8-3.1c-0.1,0.8-0.3,1.7-0.6,2.7s-1.7,6.2-4.3,15.5h-1.2
		l-5.4-19.6h1.4L151,20c0.1,0.5,0.3,1,0.4,1.4s0.2,0.8,0.3,1.2s0.2,0.7,0.3,1.1c0.1,0.4,0.1,0.7,0.2,1.1c0.2-1.2,0.7-3.1,1.4-5.5
		L157,7.4h1.5l3.9,13.7c0.5,1.6,0.8,2.8,1,3.8c0.1-0.6,0.3-1.3,0.4-2.1c0.2-0.7,1.6-5.9,4.1-15.4h1.4L164,27.1z"/>
	<path class="st1" d="M184.6,19.8c0,2.4-0.6,4.2-1.7,5.6c-1.2,1.3-2.7,2-4.8,2c-1.3,0-2.4-0.3-3.4-0.9s-1.7-1.5-2.2-2.7
		s-0.8-2.5-0.8-4c0-2.4,0.6-4.2,1.7-5.6c1.2-1.3,2.7-2,4.7-2s3.6,0.7,4.7,2C184,15.6,184.6,17.4,184.6,19.8z M173.1,19.8
		c0,2,0.4,3.6,1.3,4.7c0.9,1.1,2.1,1.7,3.7,1.7c1.6,0,2.9-0.6,3.7-1.7c0.9-1.1,1.3-2.7,1.3-4.7s-0.4-3.6-1.3-4.7
		c-0.9-1.1-2.1-1.7-3.8-1.7c-1.6,0-2.9,0.6-3.7,1.7S173.1,17.7,173.1,19.8z"/>
	<path class="st1" d="M194.4,12.2c0.6,0,1.3,0.1,2,0.2l-0.3,1.3c-0.6-0.2-1.2-0.2-1.9-0.2c-1.2,0-2.3,0.5-3.1,1.6s-1.2,2.4-1.2,4v8
		h-1.3V12.5h1.1l0.1,2.6h0.1c0.6-1.1,1.2-1.8,1.9-2.3C192.6,12.4,193.4,12.2,194.4,12.2z"/>
	<path class="st1" d="M200.6,20.7l7.4-8.2h1.6l-5.7,6.2l6.2,8.4h-1.6l-5.5-7.4l-2.4,2.2v5.2h-1.3V6.2h1.3v10.5V20.7L200.6,20.7z"/>
	<path class="st1" d="M221.6,23.3c0,1.3-0.5,2.3-1.5,3s-2.4,1.1-4.2,1.1c-2,0-3.5-0.3-4.6-0.9v-1.4c1.5,0.7,3,1.1,4.6,1.1
		c1.4,0,2.5-0.2,3.3-0.7c0.7-0.5,1.1-1.1,1.1-1.9c0-0.7-0.3-1.3-0.9-1.9s-1.6-1-2.9-1.5c-1.5-0.5-2.5-1-3.1-1.4s-1-0.8-1.3-1.3
		s-0.4-1.1-0.4-1.8c0-1.1,0.5-2,1.4-2.6s2.2-1,3.8-1s3.1,0.3,4.5,0.9l-0.5,1.2c-1.4-0.6-2.8-0.9-4-0.9s-2.1,0.2-2.8,0.6
		s-1,0.9-1,1.6c0,0.8,0.3,1.4,0.8,1.8s1.6,1,3.2,1.5c1.3,0.5,2.3,0.9,2.9,1.3s1,0.8,1.3,1.3C221.5,22.1,221.6,22.6,221.6,23.3z"/>
	<path class="st1" d="M231.6,27.3c-2.2,0-3.9-0.8-4.9-2.5h-0.1v1.1c0,0.7,0.1,1.4,0.1,2.2v5.6h-1.3V12.5h1.1l0.3,2.1h0.1
		c1-1.6,2.6-2.4,4.8-2.4c2,0,3.5,0.6,4.5,1.9c1,1.3,1.5,3.2,1.5,5.6c0,2.4-0.5,4.3-1.6,5.6C235,26.7,233.5,27.3,231.6,27.3z
		 M231.6,26.2c1.5,0,2.6-0.6,3.5-1.7c0.8-1.1,1.2-2.7,1.2-4.7c0-4.3-1.5-6.4-4.6-6.4c-1.7,0-2.9,0.5-3.7,1.4s-1.2,2.5-1.2,4.6v0.4
		c0,2.3,0.4,3.9,1.1,4.9C228.6,25.7,229.9,26.2,231.6,26.2z"/>
	<path class="st1" d="M250.6,27.1l-0.3-2.3h-0.1c-0.7,0.9-1.5,1.6-2.3,2s-1.7,0.6-2.7,0.6c-1.4,0-2.5-0.4-3.3-1.1
		c-0.8-0.7-1.2-1.7-1.2-3c0-1.4,0.6-2.5,1.8-3.3c1.2-0.8,2.9-1.2,5.1-1.2l2.8-0.1v-1c0-1.4-0.3-2.4-0.8-3.1
		c-0.6-0.7-1.5-1.1-2.7-1.1c-1.4,0-2.8,0.4-4.2,1.1l-0.5-1.2c1.6-0.8,3.2-1.1,4.7-1.1c1.6,0,2.8,0.4,3.6,1.2
		c0.8,0.8,1.2,2.1,1.2,3.9v9.7C251.7,27.1,250.6,27.1,250.6,27.1z M245.2,26.1c1.6,0,2.8-0.4,3.7-1.3c0.9-0.9,1.3-2.1,1.3-3.7v-1.4
		l-2.5,0.1c-2,0.1-3.5,0.4-4.4,1c-0.9,0.5-1.3,1.4-1.3,2.5c0,0.9,0.3,1.6,0.8,2.1C243.4,25.9,244.2,26.1,245.2,26.1z"/>
	<path class="st1" d="M262.1,27.3c-2.1,0-3.7-0.7-4.9-2c-1.2-1.3-1.8-3.1-1.8-5.5s0.6-4.3,1.8-5.6c1.2-1.3,2.9-2,5-2
		c1.3,0,2.5,0.2,3.6,0.7l-0.4,1.2c-1.3-0.4-2.4-0.6-3.3-0.6c-1.8,0-3.1,0.6-4.1,1.7s-1.4,2.7-1.4,4.8c0,2,0.5,3.5,1.4,4.6
		s2.2,1.7,3.9,1.7c1.3,0,2.6-0.2,3.7-0.7v1.2C264.9,27.1,263.6,27.3,262.1,27.3z"/>
	<path class="st1" d="M275.2,27.3c-2.1,0-3.8-0.7-5-2s-1.8-3.1-1.8-5.5c0-2.3,0.6-4.2,1.7-5.6c1.1-1.4,2.7-2.1,4.6-2.1
		c1.7,0,3.1,0.6,4.1,1.8s1.5,2.8,1.5,4.9v1.1h-10.4c0,2,0.5,3.5,1.4,4.6s2.2,1.6,3.9,1.6c0.8,0,1.6-0.1,2.2-0.2
		c0.6-0.1,1.4-0.4,2.4-0.8v1.2c-0.8,0.4-1.6,0.6-2.3,0.7C276.9,27.3,276.1,27.3,275.2,27.3z M274.9,13.4c-1.4,0-2.5,0.5-3.4,1.4
		s-1.3,2.3-1.5,4h9c0-1.7-0.4-3-1.1-4S276.2,13.4,274.9,13.4z"/>
</g>
<g>
	<g>
		<path class="st2" d="M49.3,19.7L32.6,4.9l0,0c-3.5-3.1-8-4.9-13-4.9C8.8,0,0,8.8,0,19.6s8.8,19.6,19.6,19.6c5,0,9.5-1.9,13-4.9
			l0,0L49.3,19.7z M5.9,19.7C5.9,12.2,12,6,19.6,6c7.5,0,13.7,6.1,13.7,13.7c0,7.5-6.1,13.7-13.7,13.7C12.1,33.3,5.9,27.2,5.9,19.7"
			/>
	</g>
	<g>
		<path class="st3" d="M54.8,23.5c0-3,2.5-5.1,9.8-6.1v-0.7c0-1.8-1-2.7-2.8-2.7c-2.2,0-3.8,1-5.3,2.2l-1.4-1.3
			c1.8-1.7,4.1-2.9,7-2.9c3.5,0,4.9,1.8,4.9,4.9v6.5c0,1.8,0.1,2.8,0.4,3.6h-2.5c-0.2-0.6-0.3-1.2-0.3-2c-1.6,1.5-3.5,2.2-5.6,2.2
			C56.4,27.2,54.8,25.9,54.8,23.5 M64.6,23.2v-4.1c-5.6,0.9-7.4,2.2-7.4,4.1c0,1.4,0.9,2.2,2.5,2.2C61.5,25.3,63.2,24.5,64.6,23.2"
			/>
	</g>
	<g>
		<path class="st3" d="M70.1,19.7c0-5.3,3.4-7.6,6.7-7.6c3.3,0,4.8,1.9,5.7,4.1l-2,0.8c-0.7-1.9-1.9-2.9-3.8-2.9
			c-2.1,0-4.2,1.5-4.2,5.6c0,3.6,1.7,5.6,4.2,5.6c1.9,0,3-0.8,3.9-2.9l2,0.8c-1.1,2.4-2.8,4.2-6,4.2C73.3,27.3,70.1,24.7,70.1,19.7"
			/>
	</g>
	<g>
		<path class="st3" d="M84.7,19.7c0-5.3,3.4-7.6,6.7-7.6c3.3,0,4.8,1.9,5.7,4.1l-2,0.8c-0.7-1.9-1.9-2.9-3.8-2.9
			c-2.1,0-4.2,1.5-4.2,5.6c0,3.6,1.7,5.6,4.2,5.6c1.9,0,3-0.8,3.9-2.9l2,0.8c-1.1,2.4-2.8,4.2-6,4.2C87.9,27.3,84.7,24.7,84.7,19.7"
			/>
	</g>
	<g>
		<path class="st3" d="M99.3,19.7c0-5.3,3.5-7.6,6.6-7.6c3.5,0,6.1,2.4,6.1,7.7v0.5h-10.3c0.1,3.3,2,5.1,4.4,5.1
			c2.1,0,3.3-0.9,4.4-2.4l1.4,1.2c-1.4,1.9-3.2,3.1-6,3.1C102.5,27.3,99.3,24.8,99.3,19.7 M109.8,18.4c-0.2-2.6-1.4-4.4-3.8-4.4
			c-2,0-3.8,1.4-4.2,4.4H109.8z"/>
	</g>
	<g>
		<path class="st3" d="M114.1,24.8l1.4-1.4c1.1,1.2,2.6,2,4.6,2c2.3,0,3.5-0.8,3.5-2.3s-1.3-2-3.8-2.6c-3.1-0.7-5.2-1.6-5.2-4.4
			c0-2.2,1.9-4,5.1-4c2.6,0,4.2,0.8,5.6,2.1l-1.2,1.6c-1.1-1-2.6-1.7-4.2-1.7c-2.1,0-3,0.9-3,2c0,1.4,1.2,1.9,3.5,2.4
			c3.3,0.8,5.6,1.6,5.6,4.6c0,2.8-2.5,4.3-5.8,4.3C117.5,27.2,115.3,26.2,114.1,24.8"/>
	</g>
	<g>
		<path class="st3" d="M128,24.8l1.4-1.4c1.1,1.2,2.6,2,4.6,2c2.3,0,3.5-0.8,3.5-2.3s-1.3-2-3.8-2.6c-3.1-0.7-5.2-1.6-5.2-4.4
			c0-2.2,1.9-4,5.1-4c2.6,0,4.2,0.8,5.6,2.1l-1.2,1.6c-1.1-1-2.6-1.7-4.2-1.7c-2.1,0-3,0.9-3,2c0,1.4,1.2,1.9,3.5,2.4
			c3.3,0.8,5.6,1.6,5.6,4.6c0,2.8-2.5,4.3-5.8,4.3C131.4,27.2,129.2,26.2,128,24.8"/>
	</g>
</g>
</svg>
