<?xml version="1.0" encoding="UTF-8"?><svg id="a" xmlns="http://www.w3.org/2000/svg" viewBox="0 0 378.61 86.72"><defs><style>.b{fill:#e51b40;}.c{fill:#9b9b9a;}.d{fill:#595a5c;}</style></defs><g><path class="c" d="M183.24,37.2c0,1.9-.64,3.35-1.93,4.36-1.29,1.01-3.11,1.52-5.47,1.52h-3.03v8.1h-1.37V31.56h4.8c4.67,0,7,1.88,7,5.64Zm-10.43,4.69h2.7c2.21,0,3.81-.36,4.79-1.09s1.48-1.91,1.48-3.55c0-1.51-.47-2.63-1.4-3.36s-2.37-1.09-4.32-1.09h-3.25v9.09h0Z"/><path class="c" d="M192.92,36.31c.62,0,1.28,.06,1.99,.19l-.25,1.27c-.61-.15-1.24-.23-1.89-.23-1.24,0-2.26,.53-3.06,1.58s-1.19,2.39-1.19,4v8.05h-1.33v-14.58h1.13l.13,2.63h.09c.6-1.07,1.24-1.83,1.92-2.26,.67-.43,1.49-.65,2.46-.65Z"/><path class="c" d="M209.93,43.86c0,2.38-.58,4.24-1.73,5.57-1.15,1.34-2.75,2.01-4.78,2.01-1.28,0-2.41-.31-3.38-.93s-1.72-1.5-2.24-2.66c-.52-1.15-.78-2.49-.78-4,0-2.38,.58-4.23,1.73-5.56s2.74-1.99,4.75-1.99,3.58,.67,4.71,2.02c1.15,1.36,1.72,3.2,1.72,5.54Zm-11.51,0c0,2,.44,3.57,1.32,4.69s2.13,1.68,3.74,1.68,2.86-.56,3.74-1.68,1.32-2.68,1.32-4.69-.45-3.57-1.33-4.68-2.14-1.66-3.75-1.66-2.85,.55-3.72,1.66c-.89,1.1-1.32,2.66-1.32,4.68Z"/><path class="c" d="M219.79,51.44c-2.08,0-3.72-.66-4.9-1.97s-1.77-3.15-1.77-5.5,.61-4.29,1.84-5.64c1.22-1.35,2.9-2.02,5.03-2.02,1.26,0,2.47,.22,3.62,.66l-.36,1.18c-1.26-.42-2.36-.63-3.29-.63-1.79,0-3.14,.55-4.06,1.66s-1.38,2.69-1.38,4.77c0,1.97,.46,3.51,1.38,4.62s2.21,1.67,3.86,1.67c1.32,0,2.55-.24,3.69-.71v1.23c-.93,.46-2.15,.68-3.66,.68Z"/><path class="c" d="M228.17,36.59v9.44c0,1.47,.31,2.53,.92,3.2,.62,.67,1.57,1,2.87,1,1.74,0,3.01-.44,3.83-1.31,.82-.88,1.23-2.3,1.23-4.28v-8.05h1.32v14.58h-1.13l-.24-2.01h-.08c-.95,1.52-2.63,2.28-5.06,2.28-3.32,0-4.98-1.78-4.98-5.33v-9.52h1.32Z"/><path class="c" d="M248.97,36.31c.62,0,1.28,.06,1.99,.19l-.25,1.27c-.61-.15-1.24-.23-1.89-.23-1.24,0-2.26,.53-3.06,1.58s-1.19,2.39-1.19,4v8.05h-1.33v-14.58h1.13l.13,2.63h.09c.6-1.07,1.24-1.83,1.92-2.26,.67-.43,1.49-.65,2.46-.65Z"/><path class="c" d="M259.81,51.44c-2.12,0-3.77-.65-4.96-1.96-1.19-1.31-1.78-3.13-1.78-5.49s.57-4.19,1.72-5.59,2.69-2.1,4.63-2.1c1.72,0,3.07,.6,4.06,1.8s1.49,2.83,1.49,4.88v1.07h-10.5c.02,2,.49,3.53,1.4,4.59,.92,1.06,2.23,1.58,3.94,1.58,.83,0,1.56-.06,2.19-.17s1.43-.37,2.39-.75v1.21c-.82,.36-1.58,.6-2.28,.73-.69,.14-1.46,.2-2.3,.2Zm-.39-13.95c-1.4,0-2.53,.46-3.38,1.39s-1.35,2.26-1.49,4h9.01c0-1.69-.37-3.01-1.1-3.96s-1.75-1.43-3.04-1.43Z"/><path class="c" d="M284.96,51.18h-1.13l-4.31-15.13c-.36-1.24-.63-2.26-.8-3.06-.14,.78-.35,1.67-.61,2.68-.26,1.01-1.71,6.18-4.33,15.51h-1.15l-5.39-19.61h1.43l3.43,12.64c.13,.51,.26,.98,.38,1.42s.22,.84,.32,1.22,.18,.75,.25,1.1c.08,.35,.14,.71,.21,1.07,.21-1.22,.67-3.06,1.37-5.54l3.35-11.9h1.52l3.93,13.66c.46,1.57,.78,2.84,.98,3.81,.12-.64,.27-1.33,.45-2.05,.18-.72,1.56-5.86,4.14-15.41h1.38l-5.42,19.59Z"/><path class="c" d="M293.32,32.54c0-.86,.28-1.29,.84-1.29,.28,0,.49,.11,.65,.34,.16,.22,.23,.54,.23,.95s-.08,.72-.23,.95c-.16,.23-.37,.35-.65,.35-.56,0-.84-.43-.84-1.3Zm1.51,18.64h-1.33v-14.59h1.33v14.59Z"/><path class="c" d="M308.79,51.18h-10.41v-.84l8.65-12.56h-8.02v-1.18h9.75v.85l-8.71,12.55h8.73v1.18h.01Z"/><path class="c" d="M321.24,51.18l-.34-2.31h-.11c-.73,.94-1.49,1.6-2.26,1.99-.77,.39-1.69,.58-2.74,.58-1.43,0-2.54-.37-3.34-1.1s-1.19-1.75-1.19-3.04c0-1.42,.59-2.53,1.78-3.31,1.19-.79,2.9-1.2,5.15-1.25l2.78-.08v-.97c0-1.39-.28-2.43-.84-3.14s-1.47-1.06-2.72-1.06c-1.35,0-2.75,.38-4.2,1.13l-.5-1.15c1.6-.75,3.18-1.13,4.75-1.13s2.8,.42,3.59,1.25,1.19,2.13,1.19,3.89v9.7h-1Zm-5.37-.94c1.56,0,2.78-.44,3.68-1.33,.9-.89,1.35-2.13,1.35-3.71v-1.44l-2.55,.11c-2.05,.1-3.51,.42-4.38,.96s-1.31,1.38-1.31,2.53c0,.91,.28,1.62,.84,2.13,.56,.49,1.35,.75,2.37,.75Z"/><path class="c" d="M332.68,36.31c.62,0,1.28,.06,1.99,.19l-.25,1.27c-.61-.15-1.24-.23-1.89-.23-1.24,0-2.26,.53-3.06,1.58s-1.19,2.39-1.19,4v8.05h-1.33v-14.58h1.13l.13,2.63h.09c.6-1.07,1.24-1.83,1.92-2.26,.67-.43,1.49-.65,2.46-.65Z"/><path class="c" d="M342.97,36.31c1.05,0,1.97,.19,2.74,.58,.77,.38,1.46,1.04,2.07,1.97h.08c-.05-1.13-.08-2.23-.08-3.31v-5.25h1.31v20.87h-.87l-.33-2.23h-.11c-1.11,1.66-2.7,2.5-4.78,2.5s-3.55-.63-4.62-1.88c-1.06-1.25-1.6-3.08-1.6-5.47,0-2.52,.53-4.45,1.58-5.78,1.06-1.33,2.6-2,4.61-2Zm0,1.21c-1.59,0-2.79,.56-3.59,1.68s-1.2,2.74-1.2,4.87c0,4.13,1.61,6.2,4.82,6.2,1.65,0,2.85-.48,3.62-1.44s1.15-2.54,1.15-4.74v-.23c0-2.25-.38-3.87-1.13-4.86s-1.98-1.48-3.67-1.48Z"/></g><g><path class="b" d="M72.44,43.76l-16.75-14.71h0c-3.46-3.05-8-4.91-12.98-4.91-10.84,0-19.62,8.79-19.62,19.62s8.79,19.62,19.62,19.62c4.98,0,9.52-1.85,12.98-4.91h0l16.75-14.71Zm-43.4,0c0-7.55,6.12-13.67,13.67-13.67s13.66,6.12,13.66,13.67-6.12,13.66-13.66,13.66c-7.55,.01-13.67-6.11-13.67-13.66"/><path class="d" d="M77.88,47.61c0-2.96,2.52-5.07,9.77-6.09v-.66c0-1.83-.97-2.71-2.77-2.71-2.22,0-3.85,.97-5.29,2.21l-1.44-1.29c1.79-1.7,4.07-2.91,6.98-2.91,3.49,0,4.87,1.83,4.87,4.87v6.45c0,1.77,.11,2.85,.42,3.6h-2.44c-.19-.61-.33-1.19-.33-2.02-1.63,1.52-3.46,2.24-5.65,2.24-2.52,0-4.12-1.34-4.12-3.69m9.77-.34v-4.1c-5.57,.89-7.42,2.24-7.42,4.07,0,1.41,.94,2.16,2.46,2.16,1.94,0,3.6-.8,4.96-2.13"/><path class="d" d="M93.24,43.76c0-5.34,3.43-7.61,6.7-7.61s4.85,1.94,5.73,4.1l-2.02,.83c-.72-1.88-1.86-2.91-3.77-2.91-2.1,0-4.24,1.47-4.24,5.59,0,3.6,1.72,5.62,4.18,5.62,1.86,0,2.99-.8,3.93-2.93l1.97,.77c-1.14,2.44-2.82,4.15-5.98,4.15-3.37,0-6.5-2.6-6.5-7.61"/><path class="d" d="M107.83,43.76c0-5.34,3.43-7.61,6.7-7.61s4.85,1.94,5.73,4.1l-2.02,.83c-.72-1.88-1.85-2.91-3.77-2.91-2.1,0-4.23,1.47-4.23,5.59,0,3.6,1.72,5.62,4.18,5.62,1.86,0,2.99-.8,3.93-2.93l1.97,.77c-1.14,2.44-2.83,4.15-5.98,4.15-3.38,0-6.51-2.6-6.51-7.61"/><path class="d" d="M122.42,43.76c0-5.32,3.54-7.61,6.62-7.61,3.46,0,6.09,2.44,6.09,7.73v.5h-10.33c.08,3.29,1.99,5.07,4.4,5.07,2.1,0,3.29-.86,4.4-2.38l1.38,1.22c-1.36,1.94-3.21,3.1-5.95,3.1-3.45-.02-6.61-2.54-6.61-7.63m10.44-1.25c-.19-2.6-1.44-4.37-3.85-4.37-1.97,0-3.82,1.35-4.15,4.37h8Z"/><path class="d" d="M137.21,48.85l1.44-1.44c1.11,1.19,2.58,2.02,4.57,2.02,2.27,0,3.52-.8,3.52-2.3s-1.27-2.02-3.77-2.6c-3.1-.75-5.23-1.58-5.23-4.4,0-2.21,1.94-3.99,5.12-3.99,2.57,0,4.24,.83,5.59,2.1l-1.25,1.58c-1.11-1.02-2.6-1.74-4.24-1.74-2.13,0-2.96,.94-2.96,1.96,0,1.36,1.16,1.86,3.46,2.38,3.29,.8,5.56,1.61,5.56,4.62,0,2.8-2.52,4.29-5.84,4.29-2.62,.01-4.78-1.04-5.97-2.48"/><path class="d" d="M151.1,48.85l1.44-1.44c1.11,1.19,2.57,2.02,4.57,2.02,2.27,0,3.52-.8,3.52-2.3s-1.27-2.02-3.77-2.6c-3.1-.75-5.23-1.58-5.23-4.4,0-2.21,1.94-3.99,5.12-3.99,2.57,0,4.24,.83,5.59,2.1l-1.25,1.58c-1.11-1.02-2.6-1.74-4.23-1.74-2.13,0-2.96,.94-2.96,1.96,0,1.36,1.16,1.86,3.46,2.38,3.3,.8,5.57,1.61,5.57,4.62,0,2.8-2.52,4.29-5.84,4.29-2.64,.01-4.8-1.04-5.99-2.48"/></g></svg>