<?xml version="1.0" encoding="utf-8"?>
<!-- Generator: Adobe Illustrator 24.1.2, SVG Export Plug-In . SVG Version: 6.00 Build 0)  -->
<svg version="1.1" id="Layer_1" xmlns="http://www.w3.org/2000/svg" xmlns:xlink="http://www.w3.org/1999/xlink" x="0px" y="0px"
	 viewBox="0 0 302.7 89.2" style="enable-background:new 0 0 302.7 89.2;" xml:space="preserve">
<style type="text/css">
	.st0{enable-background:new    ;}
	.st1{fill:#9A9A9A;}
	.st2{fill:#E51B40;}
	.st3{fill:#595A5C;}
</style>
<g class="st0">
	<path class="st1" d="M183.5,45.2h-8l-2.7,6.9h-1.5l7.9-19.7h0.9l7.7,19.7h-1.5L183.5,45.2z M176,43.9h7l-2.7-7.1
		c-0.2-0.6-0.5-1.3-0.8-2.3c-0.2,0.9-0.5,1.6-0.8,2.3L176,43.9z"/>
	<path class="st1" d="M200.4,52.1v-9.5c0-1.5-0.3-2.5-0.9-3.2c-0.6-0.7-1.6-1-2.9-1c-1.7,0-3,0.4-3.8,1.3c-0.8,0.9-1.2,2.3-1.2,4.3
		v8h-1.3V37.5h1.1l0.3,2h0.1c0.9-1.5,2.6-2.3,5.1-2.3c3.3,0,5,1.8,5,5.3V52L200.4,52.1L200.4,52.1L200.4,52.1z"/>
	<path class="st1" d="M215.3,52.1l-0.3-2.3h-0.1c-0.7,0.9-1.5,1.6-2.3,2c-0.8,0.4-1.7,0.6-2.7,0.6c-1.4,0-2.5-0.4-3.3-1.1
		c-0.8-0.7-1.2-1.7-1.2-3c0-1.4,0.6-2.5,1.8-3.3c1.2-0.8,2.9-1.2,5.1-1.2l2.8-0.1v-1c0-1.4-0.3-2.4-0.8-3.1
		c-0.6-0.7-1.5-1.1-2.7-1.1c-1.3,0-2.8,0.4-4.2,1.1l-0.5-1.2c1.6-0.8,3.2-1.1,4.7-1.1c1.6,0,2.8,0.4,3.6,1.2s1.2,2.1,1.2,3.9v9.7
		C216.4,52.1,215.3,52.1,215.3,52.1z M209.9,51.1c1.6,0,2.8-0.4,3.7-1.3c0.9-0.9,1.3-2.1,1.3-3.7v-1.4l-2.5,0.1
		c-2,0.1-3.5,0.4-4.4,1c-0.9,0.5-1.3,1.4-1.3,2.5c0,0.9,0.3,1.6,0.8,2.1C208.1,50.9,208.9,51.1,209.9,51.1z"/>
	<path class="st1" d="M222.3,52.1H221V31.2h1.3V52.1z"/>
	<path class="st1" d="M224.7,37.5h1.4l3.1,8.2c0.9,2.5,1.5,4.2,1.8,5.1h0.1c0.4-1.2,1-2.9,1.8-5.2l3.1-8.1h1.4l-6.5,16.9
		c-0.5,1.4-1,2.3-1.3,2.8c-0.4,0.5-0.8,0.8-1.3,1.1s-1.1,0.4-1.7,0.4c-0.5,0-1.1-0.1-1.7-0.3v-1.2c0.5,0.1,1.1,0.2,1.7,0.2
		c0.5,0,0.9-0.1,1.2-0.3s0.7-0.5,0.9-1c0.3-0.5,0.6-1.2,1-2.1c0.4-1,0.6-1.6,0.7-1.9L224.7,37.5z"/>
	<path class="st1" d="M243.6,51.2c0.8,0,1.6-0.1,2.2-0.2v1.1c-0.6,0.2-1.4,0.3-2.2,0.3c-1.3,0-2.2-0.3-2.9-1
		c-0.6-0.7-0.9-1.8-0.9-3.2v-9.4h-2.2v-0.9l2.2-0.6l0.7-3.3h0.7v3.5h4.3v1.2h-4.3v9.2c0,1.1,0.2,1.9,0.6,2.5
		C242.2,50.9,242.8,51.2,243.6,51.2z"/>
	<path class="st1" d="M248.8,33.4c0-0.9,0.3-1.3,0.8-1.3c0.3,0,0.5,0.1,0.7,0.3c0.2,0.2,0.2,0.5,0.2,1c0,0.4-0.1,0.7-0.2,1
		c-0.2,0.2-0.4,0.3-0.7,0.3C249.1,34.7,248.8,34.3,248.8,33.4z M250.3,52.1H249V37.5h1.3V52.1z"/>
	<path class="st1" d="M261,52.3c-2.1,0-3.7-0.7-4.9-2c-1.2-1.3-1.8-3.1-1.8-5.5s0.6-4.3,1.8-5.6c1.2-1.3,2.9-2,5-2
		c1.3,0,2.5,0.2,3.6,0.7l-0.4,1.2c-1.3-0.4-2.4-0.6-3.3-0.6c-1.8,0-3.1,0.6-4.1,1.7c-1,1.1-1.4,2.7-1.4,4.8c0,2,0.5,3.5,1.4,4.6
		c0.9,1.1,2.2,1.7,3.9,1.7c1.3,0,2.6-0.2,3.7-0.7v1.2C263.7,52.1,262.5,52.3,261,52.3z"/>
	<path class="st1" d="M277.3,48.3c0,1.3-0.5,2.3-1.5,3s-2.4,1.1-4.2,1.1c-1.9,0-3.5-0.3-4.6-0.9v-1.4c1.5,0.7,3,1.1,4.6,1.1
		c1.4,0,2.5-0.2,3.3-0.7c0.8-0.5,1.1-1.1,1.1-1.9c0-0.7-0.3-1.3-0.9-1.9c-0.6-0.5-1.6-1-2.9-1.5c-1.5-0.5-2.5-1-3.1-1.4
		c-0.6-0.4-1-0.8-1.3-1.3s-0.4-1.1-0.4-1.8c0-1.1,0.5-2,1.4-2.6s2.2-1,3.8-1c1.6,0,3.1,0.3,4.5,0.9l-0.5,1.2c-1.4-0.6-2.8-0.9-4-0.9
		c-1.2,0-2.1,0.2-2.8,0.6s-1,0.9-1,1.6c0,0.8,0.3,1.4,0.8,1.8s1.6,1,3.2,1.5c1.3,0.5,2.3,0.9,2.9,1.3c0.6,0.4,1,0.8,1.3,1.3
		C277.1,47.1,277.3,47.6,277.3,48.3z"/>
</g>
<g>
	<g>
		<path class="st2" d="M75,44.7L58.3,29.9l0,0c-3.5-3.1-8-4.9-13-4.9c-10.8,0-19.6,8.8-19.6,19.6s8.8,19.6,19.6,19.6
			c5,0,9.5-1.9,13-4.9l0,0L75,44.7z M31.6,44.7c0-7.5,6.1-13.7,13.7-13.7C52.8,31,59,37.1,59,44.7c0,7.5-6.1,13.7-13.7,13.7
			C37.8,58.3,31.6,52.2,31.6,44.7"/>
	</g>
	<g>
		<path class="st3" d="M80.5,48.5c0-3,2.5-5.1,9.8-6.1v-0.7c0-1.8-1-2.7-2.8-2.7c-2.2,0-3.8,1-5.3,2.2l-1.4-1.3
			c1.8-1.7,4.1-2.9,7-2.9c3.5,0,4.9,1.8,4.9,4.9v6.5c0,1.8,0.1,2.8,0.4,3.6h-2.5c-0.2-0.6-0.3-1.2-0.3-2c-1.6,1.5-3.5,2.2-5.6,2.2
			C82.1,52.2,80.5,50.9,80.5,48.5 M90.3,48.2v-4.1c-5.6,0.9-7.4,2.2-7.4,4.1c0,1.4,0.9,2.2,2.5,2.2C87.2,50.3,88.9,49.5,90.3,48.2"
			/>
	</g>
	<g>
		<path class="st3" d="M95.8,44.7c0-5.3,3.4-7.6,6.7-7.6c3.3,0,4.8,1.9,5.7,4.1l-2,0.8c-0.7-1.9-1.9-2.9-3.8-2.9
			c-2.1,0-4.2,1.5-4.2,5.6c0,3.6,1.7,5.6,4.2,5.6c1.9,0,3-0.8,3.9-2.9l2,0.8c-1.1,2.4-2.8,4.2-6,4.2C99,52.3,95.8,49.7,95.8,44.7"/>
	</g>
	<g>
		<path class="st3" d="M110.4,44.7c0-5.3,3.4-7.6,6.7-7.6c3.3,0,4.8,1.9,5.7,4.1l-2,0.8c-0.7-1.9-1.9-2.9-3.8-2.9
			c-2.1,0-4.2,1.5-4.2,5.6c0,3.6,1.7,5.6,4.2,5.6c1.9,0,3-0.8,3.9-2.9l2,0.8c-1.1,2.4-2.8,4.2-6,4.2
			C113.6,52.3,110.4,49.7,110.4,44.7"/>
	</g>
	<g>
		<path class="st3" d="M125,44.7c0-5.3,3.5-7.6,6.6-7.6c3.5,0,6.1,2.4,6.1,7.7v0.5h-10.3c0.1,3.3,2,5.1,4.4,5.1
			c2.1,0,3.3-0.9,4.4-2.4l1.4,1.2c-1.4,1.9-3.2,3.1-6,3.1C128.2,52.3,125,49.8,125,44.7 M135.5,43.4c-0.2-2.6-1.4-4.4-3.8-4.4
			c-2,0-3.8,1.4-4.2,4.4H135.5z"/>
	</g>
	<g>
		<path class="st3" d="M139.8,49.8l1.4-1.4c1.1,1.2,2.6,2,4.6,2c2.3,0,3.5-0.8,3.5-2.3s-1.3-2-3.8-2.6c-3.1-0.7-5.2-1.6-5.2-4.4
			c0-2.2,1.9-4,5.1-4c2.6,0,4.2,0.8,5.6,2.1l-1.2,1.6c-1.1-1-2.6-1.7-4.2-1.7c-2.1,0-3,0.9-3,2c0,1.4,1.2,1.9,3.5,2.4
			c3.3,0.8,5.6,1.6,5.6,4.6c0,2.8-2.5,4.3-5.8,4.3C143.2,52.2,141,51.2,139.8,49.8"/>
	</g>
	<g>
		<path class="st3" d="M153.7,49.8l1.4-1.4c1.1,1.2,2.6,2,4.6,2c2.3,0,3.5-0.8,3.5-2.3s-1.3-2-3.8-2.6c-3.1-0.7-5.2-1.6-5.2-4.4
			c0-2.2,1.9-4,5.1-4c2.6,0,4.2,0.8,5.6,2.1l-1.2,1.6c-1.1-1-2.6-1.7-4.2-1.7c-2.1,0-3,0.9-3,2c0,1.4,1.2,1.9,3.5,2.4
			c3.3,0.8,5.6,1.6,5.6,4.6c0,2.8-2.5,4.3-5.8,4.3C157.1,52.2,154.9,51.2,153.7,49.8"/>
	</g>
</g>
</svg>
