<?xml version="1.0" encoding="utf-8"?>
<!-- Generator: Adobe Illustrator 24.1.2, SVG Export Plug-In . SVG Version: 6.00 Build 0)  -->
<svg version="1.1" id="Layer_1" xmlns="http://www.w3.org/2000/svg" xmlns:xlink="http://www.w3.org/1999/xlink" x="0px" y="0px"
	 viewBox="0 0 1134 398" style="enable-background:new 0 0 1134 398;" xml:space="preserve">
<style type="text/css">
	.st0{fill:#E5173F;}
	.st1{fill:#58595B;}
</style>
<path class="st0" d="M350,188.2l-91.3-80.1h0c-18.8-16.6-43.6-26.7-70.7-26.7c-59,0-106.9,47.9-106.9,106.9
	c0,59,47.9,106.9,106.9,106.9c27.1,0,51.9-10.1,70.7-26.7h0L350,188.2z M113.6,188.2c0-41.1,33.3-74.4,74.4-74.4
	c41.1,0,74.4,33.3,74.4,74.4c0,41.1-33.3,74.4-74.4,74.4C146.9,262.6,113.6,229.3,113.6,188.2"/>
<path class="st1" d="M385.6,209.8c0-16.6,14.1-28.5,54.9-34.2v-3.7c0-10.3-5.4-15.2-15.5-15.2c-12.4,0-21.6,5.4-29.7,12.4l-8.1-7.3
	c10-9.5,22.9-16.4,39.2-16.4c19.6,0,27.4,10.3,27.4,27.4v36.2c0,9.9,0.6,16,2.3,20.2h-13.7c-1.1-3.4-1.9-6.7-1.9-11.3
	c-9.2,8.5-19.4,12.6-31.7,12.6C394.6,230.5,385.6,223,385.6,209.8 M440.5,207.9v-23c-31.3,5-41.7,12.6-41.7,22.8
	c0,7.9,5.3,12.1,13.8,12.1C423.5,219.9,432.9,215.4,440.5,207.9"/>
<path class="st1" d="M471.9,188.2c0-30,19.3-42.7,37.6-42.7c18.5,0,27.2,10.9,32.2,23l-11.3,4.7c-4-10.6-10.4-16.3-21.1-16.3
	c-11.8,0-23.8,8.2-23.8,31.4c0,20.2,9.6,31.6,23.5,31.6c10.4,0,16.8-4.5,22.1-16.5l11,4.3c-6.4,13.7-15.9,23.3-33.6,23.3
	C489.5,231,471.9,216.4,471.9,188.2"/>
<path class="st1" d="M553.8,188.2c0-30,19.3-42.7,37.6-42.7c18.5,0,27.2,10.9,32.2,23l-11.4,4.7c-4-10.6-10.4-16.3-21.1-16.3
	c-11.8,0-23.8,8.2-23.8,31.4c0,20.2,9.6,31.6,23.5,31.6c10.4,0,16.8-4.5,22.1-16.5l11,4.3c-6.4,13.7-15.9,23.3-33.6,23.3
	C571.4,231,553.8,216.4,553.8,188.2"/>
<path class="st1" d="M635.7,188.2c0-29.8,19.9-42.7,37.2-42.7c19.4,0,34.2,13.7,34.2,43.4v2.8h-58c0.5,18.5,11.2,28.5,24.7,28.5
	c11.8,0,18.5-4.8,24.7-13.4l7.8,6.8c-7.6,10.9-18,17.4-33.4,17.4C653.5,231,635.7,216.8,635.7,188.2 M694.3,181.2
	c-1.1-14.6-8.1-24.5-21.6-24.5c-11,0-21.5,7.6-23.3,24.5H694.3z"/>
<path class="st1" d="M718.7,216.8l8.1-8.1c6.2,6.7,14.5,11.3,25.6,11.3c12.8,0,19.8-4.5,19.8-12.9c0-8.2-7.2-11.3-21.1-14.6
	c-17.4-4.2-29.4-8.9-29.4-24.7c0-12.4,10.9-22.4,28.8-22.4c14.5,0,23.8,4.7,31.4,11.8l-7,8.9c-6.2-5.7-14.6-9.8-23.8-9.8
	c-12,0-16.6,5.3-16.6,11c0,7.6,6.5,10.4,19.4,13.4c18.5,4.5,31.2,9,31.2,26c0,15.7-14.1,24.1-32.8,24.1
	C737.6,230.8,725.4,224.9,718.7,216.8"/>
<path class="st1" d="M796.8,216.8l8.1-8.1c6.2,6.7,14.5,11.3,25.7,11.3c12.7,0,19.7-4.5,19.7-12.9c0-8.2-7.1-11.3-21.1-14.6
	c-17.4-4.2-29.4-8.9-29.4-24.7c0-12.4,10.9-22.4,28.8-22.4c14.5,0,23.8,4.7,31.4,11.8l-7,8.9c-6.2-5.7-14.6-9.8-23.8-9.8
	c-12,0-16.6,5.3-16.6,11c0,7.6,6.5,10.4,19.4,13.4c18.5,4.5,31.3,9,31.3,26c0,15.7-14.2,24.1-32.8,24.1
	C815.6,230.8,803.5,224.9,796.8,216.8"/>
<g>
	<path class="st0" d="M411.3,279.3h-10.5v36.4h-6.2v-36.4h-7.4v-2.8l7.4-2.3v-2.3c0-10.1,4.4-15.2,13.3-15.2c2.2,0,4.7,0.4,7.7,1.3
		l-1.6,5c-2.4-0.8-4.5-1.2-6.2-1.2c-2.4,0-4.1,0.8-5.2,2.4c-1.1,1.6-1.7,4.1-1.7,7.5v2.7h10.5V279.3z"/>
	<path class="st0" d="M411.3,279.3h-10.5v36.4h-6.2v-36.4h-7.4v-2.8l7.4-2.3v-2.3c0-10.1,4.4-15.2,13.3-15.2c2.2,0,4.7,0.4,7.7,1.3
		l-1.6,5c-2.4-0.8-4.5-1.2-6.2-1.2c-2.4,0-4.1,0.8-5.2,2.4c-1.1,1.6-1.7,4.1-1.7,7.5v2.7h10.5V279.3z"/>
	<path class="st0" d="M437.7,273.7c1.8,0,3.5,0.2,4.9,0.5l-0.9,5.8c-1.7-0.4-3.2-0.6-4.5-0.6c-3.3,0-6.2,1.4-8.6,4.1
		c-2.4,2.7-3.6,6.1-3.6,10.1v22.1h-6.2v-41.2h5.2l0.7,7.6h0.3c1.5-2.7,3.4-4.8,5.5-6.2C432.7,274.4,435.1,273.7,437.7,273.7z"/>
	<path class="st0" d="M464.3,316.5c-6.1,0-10.9-1.9-14.4-5.6c-3.5-3.7-5.3-8.9-5.3-15.5c0-6.6,1.6-11.9,4.9-15.8
		c3.3-3.9,7.7-5.9,13.2-5.9c5.2,0,9.3,1.7,12.3,5.1c3,3.4,4.5,7.9,4.5,13.5v4H451c0.1,4.8,1.3,8.5,3.7,11c2.3,2.5,5.6,3.8,9.8,3.8
		c4.4,0,8.8-0.9,13.2-2.8v5.6c-2.2,1-4.3,1.6-6.3,2.1C469.4,316.2,467,316.5,464.3,316.5z M462.6,278.9c-3.3,0-6,1.1-7.9,3.2
		c-2,2.2-3.1,5.1-3.5,9h21.6c0-3.9-0.9-7-2.6-9C468.3,280,465.8,278.9,462.6,278.9z"/>
	<path class="st0" d="M504,316.5c-6.1,0-10.9-1.9-14.4-5.6c-3.5-3.7-5.3-8.9-5.3-15.5c0-6.6,1.6-11.9,4.9-15.8
		c3.3-3.9,7.7-5.9,13.2-5.9c5.2,0,9.3,1.7,12.3,5.1c3,3.4,4.5,7.9,4.5,13.5v4h-28.4c0.1,4.8,1.3,8.5,3.7,11c2.3,2.5,5.6,3.8,9.8,3.8
		c4.4,0,8.8-0.9,13.2-2.8v5.6c-2.2,1-4.3,1.6-6.3,2.1C509.2,316.2,506.8,316.5,504,316.5z M502.3,278.9c-3.3,0-6,1.1-7.9,3.2
		c-2,2.2-3.1,5.1-3.5,9h21.6c0-3.9-0.9-7-2.6-9S505.6,278.9,502.3,278.9z"/>
	<path class="st0" d="M554.4,310.2h-0.3c-2.9,4.2-7.2,6.3-12.9,6.3c-5.4,0-9.6-1.8-12.6-5.5c-3-3.7-4.5-8.9-4.5-15.7
		c0-6.8,1.5-12.1,4.5-15.8c3-3.8,7.2-5.6,12.6-5.6c5.6,0,9.9,2,12.9,6.1h0.5l-0.3-3l-0.2-2.9v-16.8h6.2v58.6h-5.1L554.4,310.2z
		 M542,311.2c4.3,0,7.4-1.2,9.3-3.5c1.9-2.3,2.9-6.1,2.9-11.2v-1.3c0-5.8-1-10-2.9-12.5c-1.9-2.5-5-3.7-9.3-3.7
		c-3.7,0-6.5,1.4-8.4,4.3c-1.9,2.8-2.9,6.9-2.9,12.1c0,5.3,1,9.2,2.9,11.9C535.4,309.9,538.2,311.2,542,311.2z"/>
	<path class="st0" d="M605.7,295c0,6.7-1.7,12-5.1,15.7c-3.4,3.8-8.1,5.7-14,5.7c-3.7,0-7-0.9-9.8-2.6c-2.9-1.7-5.1-4.2-6.6-7.5
		c-1.6-3.2-2.3-7-2.3-11.4c0-6.7,1.7-12,5-15.7c3.4-3.7,8-5.6,14-5.6c5.8,0,10.4,1.9,13.8,5.8C604,283.3,605.7,288.5,605.7,295z
		 M574.3,295c0,5.3,1.1,9.3,3.2,12c2.1,2.8,5.2,4.1,9.3,4.1s7.2-1.4,9.3-4.1c2.1-2.7,3.2-6.8,3.2-12.1c0-5.2-1.1-9.2-3.2-11.9
		c-2.1-2.7-5.2-4.1-9.4-4.1c-4.1,0-7.2,1.3-9.3,4C575.3,285.7,574.3,289.7,574.3,295z"/>
	<path class="st0" d="M665.8,315.7v-26.8c0-3.3-0.7-5.8-2.1-7.4c-1.4-1.6-3.6-2.5-6.5-2.5c-3.9,0-6.8,1.1-8.6,3.3
		c-1.9,2.2-2.8,5.7-2.8,10.3v23h-6.2v-26.8c0-3.3-0.7-5.8-2.1-7.4c-1.4-1.6-3.6-2.5-6.6-2.5c-3.9,0-6.8,1.2-8.6,3.5
		c-1.8,2.3-2.7,6.2-2.7,11.5v21.6h-6.2v-41.2h5.1l1,5.6h0.3c1.2-2,2.8-3.6,5-4.7c2.1-1.1,4.5-1.7,7.2-1.7c6.4,0,10.7,2.3,12.6,7h0.3
		c1.2-2.2,3-3.9,5.3-5.1c2.3-1.3,5-1.9,8-1.9c4.7,0,8.2,1.2,10.5,3.6c2.3,2.4,3.5,6.2,3.5,11.5v26.9H665.8z"/>
	<path class="st0" d="M711.8,311.3c1.1,0,2.2-0.1,3.2-0.2c1-0.2,1.8-0.3,2.4-0.5v4.8c-0.7,0.3-1.7,0.6-3,0.8
		c-1.3,0.2-2.5,0.3-3.6,0.3c-8,0-12-4.2-12-12.6v-24.5H693v-3l5.9-2.6l2.6-8.8h3.6v9.6h12v4.9h-12v24.3c0,2.5,0.6,4.4,1.8,5.7
		C708.1,310.6,709.7,311.3,711.8,311.3z"/>
	<path class="st0" d="M757.8,295c0,6.7-1.7,12-5.1,15.7c-3.4,3.8-8.1,5.7-14,5.7c-3.7,0-7-0.9-9.8-2.6c-2.9-1.7-5.1-4.2-6.6-7.5
		c-1.6-3.2-2.3-7-2.3-11.4c0-6.7,1.7-12,5-15.7c3.4-3.7,8-5.6,14-5.6c5.8,0,10.4,1.9,13.8,5.8C756.1,283.3,757.8,288.5,757.8,295z
		 M726.4,295c0,5.3,1.1,9.3,3.2,12c2.1,2.8,5.2,4.1,9.3,4.1s7.2-1.4,9.3-4.1c2.1-2.7,3.2-6.8,3.2-12.1c0-5.2-1.1-9.2-3.2-11.9
		c-2.1-2.7-5.2-4.1-9.4-4.1c-4.1,0-7.2,1.3-9.3,4C727.4,285.7,726.4,289.7,726.4,295z"/>
	<path class="st0" d="M809.1,310.2h-0.3c-2.9,4.2-7.2,6.3-12.9,6.3c-5.4,0-9.6-1.8-12.6-5.5c-3-3.7-4.5-8.9-4.5-15.7
		c0-6.8,1.5-12.1,4.5-15.8s7.2-5.6,12.6-5.6c5.6,0,9.9,2,12.9,6.1h0.5l-0.3-3l-0.2-2.9v-16.8h6.2v58.6h-5.1L809.1,310.2z
		 M796.6,311.2c4.3,0,7.4-1.2,9.3-3.5c1.9-2.3,2.9-6.1,2.9-11.2v-1.3c0-5.8-1-10-2.9-12.5s-5-3.7-9.3-3.7c-3.7,0-6.5,1.4-8.4,4.3
		c-1.9,2.8-2.9,6.9-2.9,12.1c0,5.3,1,9.2,2.9,11.9C790,309.9,792.9,311.2,796.6,311.2z"/>
	<path class="st0" d="M860.4,295c0,6.7-1.7,12-5.1,15.7c-3.4,3.8-8.1,5.7-14,5.7c-3.7,0-7-0.9-9.8-2.6c-2.9-1.7-5.1-4.2-6.6-7.5
		c-1.6-3.2-2.3-7-2.3-11.4c0-6.7,1.7-12,5-15.7c3.4-3.7,8-5.6,14-5.6c5.8,0,10.4,1.9,13.8,5.8C858.7,283.3,860.4,288.5,860.4,295z
		 M829,295c0,5.3,1.1,9.3,3.2,12c2.1,2.8,5.2,4.1,9.3,4.1s7.2-1.4,9.3-4.1c2.1-2.7,3.2-6.8,3.2-12.1c0-5.2-1.1-9.2-3.2-11.9
		c-2.1-2.7-5.2-4.1-9.4-4.1c-4.1,0-7.2,1.3-9.3,4C830,285.7,829,289.7,829,295z"/>
	<path class="st0" d="M933.7,315.7v-26.8c0-3.3-0.7-5.8-2.1-7.4c-1.4-1.6-3.6-2.5-6.5-2.5c-3.9,0-6.8,1.1-8.6,3.3
		c-1.9,2.2-2.8,5.7-2.8,10.3v23h-6.2v-26.8c0-3.3-0.7-5.8-2.1-7.4c-1.4-1.6-3.6-2.5-6.6-2.5c-3.9,0-6.8,1.2-8.6,3.5
		c-1.8,2.3-2.7,6.2-2.7,11.5v21.6h-6.2v-41.2h5.1l1,5.6h0.3c1.2-2,2.8-3.6,5-4.7c2.1-1.1,4.5-1.7,7.2-1.7c6.4,0,10.7,2.3,12.6,7h0.3
		c1.2-2.2,3-3.9,5.3-5.1c2.3-1.3,5-1.9,8-1.9c4.7,0,8.2,1.2,10.5,3.6c2.3,2.4,3.5,6.2,3.5,11.5v26.9H933.7z"/>
	<path class="st0" d="M984.9,295c0,6.7-1.7,12-5.1,15.7c-3.4,3.8-8.1,5.7-14,5.7c-3.7,0-7-0.9-9.8-2.6c-2.9-1.7-5.1-4.2-6.6-7.5
		c-1.6-3.2-2.3-7-2.3-11.4c0-6.7,1.7-12,5-15.7c3.4-3.7,8-5.6,14-5.6c5.8,0,10.4,1.9,13.8,5.8C983.2,283.3,984.9,288.5,984.9,295z
		 M953.5,295c0,5.3,1.1,9.3,3.2,12c2.1,2.8,5.2,4.1,9.3,4.1s7.2-1.4,9.3-4.1c2.1-2.7,3.2-6.8,3.2-12.1c0-5.2-1.1-9.2-3.2-11.9
		c-2.1-2.7-5.2-4.1-9.4-4.1c-4.1,0-7.2,1.3-9.3,4C954.6,285.7,953.5,289.7,953.5,295z"/>
	<path class="st0" d="M1011.2,273.7c1.8,0,3.5,0.2,4.9,0.5l-0.9,5.8c-1.7-0.4-3.2-0.6-4.5-0.6c-3.3,0-6.2,1.4-8.6,4.1
		c-2.4,2.7-3.6,6.1-3.6,10.1v22.1h-6.2v-41.2h5.2l0.7,7.6h0.3c1.5-2.7,3.4-4.8,5.5-6.2C1006.3,274.4,1008.7,273.7,1011.2,273.7z"/>
	<path class="st0" d="M1037.8,316.5c-6.1,0-10.9-1.9-14.4-5.6c-3.5-3.7-5.3-8.9-5.3-15.5c0-6.6,1.6-11.9,4.9-15.8
		c3.3-3.9,7.7-5.9,13.2-5.9c5.2,0,9.3,1.7,12.3,5.1c3,3.4,4.5,7.9,4.5,13.5v4h-28.4c0.1,4.8,1.3,8.5,3.7,11c2.3,2.5,5.6,3.8,9.8,3.8
		c4.4,0,8.8-0.9,13.2-2.8v5.6c-2.2,1-4.3,1.6-6.3,2.1C1043,316.2,1040.6,316.5,1037.8,316.5z M1036.1,278.9c-3.3,0-6,1.1-7.9,3.2
		c-2,2.2-3.1,5.1-3.5,9h21.6c0-3.9-0.9-7-2.6-9S1039.4,278.9,1036.1,278.9z"/>
</g>
</svg>
